{
	"asset":{
		"generator":"Khronos glTF Blender I/O v5.2.40",
		"version":"2.0"
	},
	"scene":0,
	"scenes":[
		{
			"name":"Scene",
			"nodes":[
				0,
				1,
				2,
				3,
				4,
				5,
				6,
				7,
				8,
				9,
				10,
				11
			]
		}
	],
	"nodes":[
		{
			"mesh":0,
			"name":"Cube"
		},
		{
			"mesh":1,
			"name":"Cube.001"
		},
		{
			"mesh":2,
			"name":"Cube.002"
		},
		{
			"mesh":3,
			"name":"Cube.003"
		},
		{
			"mesh":4,
			"name":"Cube.004"
		},
		{
			"mesh":5,
			"name":"Cube.005"
		},
		{
			"mesh":6,
			"name":"Cube.006"
		},
		{
			"mesh":7,
			"name":"Cube.007"
		},
		{
			"mesh":8,
			"name":"Cube.008"
		},
		{
			"mesh":9,
			"name":"Cylinder"
		},
		{
			"mesh":10,
			"name":"Cylinder.001"
		},
		{
			"name":"LineArt"
		}
	],
	"materials":[
		{
			"doubleSided":true,
			"name":"Material",
			"pbrMetallicRoughness":{
				"baseColorFactor":[
					0.15592652559280396,
					0.23839764297008514,
					1,
					1
				],
				"metallicFactor":0,
				"roughnessFactor":0.5
			}
		},
		{
			"doubleSided":true,
			"name":"Material.001",
			"pbrMetallicRoughness":{
				"baseColorFactor":[
					0,
					0,
					0,
					1
				],
				"metallicFactor":0,
				"roughnessFactor":0.5
			}
		},
		{
			"doubleSided":true,
			"name":"Material.002",
			"pbrMetallicRoughness":{
				"metallicFactor":0,
				"roughnessFactor":0.5
			}
		},
		{
			"doubleSided":true,
			"name":"Material.003",
			"pbrMetallicRoughness":{
				"baseColorFactor":[
					0,
					0,
					0,
					1
				],
				"metallicFactor":0,
				"roughnessFactor":0
			}
		},
		{
			"doubleSided":true,
			"name":"Material.004",
			"pbrMetallicRoughness":{
				"baseColorFactor":[
					0.8000074625015259,
					0,
					0,
					1
				],
				"metallicFactor":0,
				"roughnessFactor":0.5
			}
		},
		{
			"doubleSided":true,
			"name":"Material.005",
			"pbrMetallicRoughness":{
				"baseColorFactor":[
					0.8000074625015259,
					0.18596522510051727,
					0,
					1
				],
				"metallicFactor":0,
				"roughnessFactor":0.5
			}
		},
		{
			"doubleSided":true,
			"name":"Material.006",
			"pbrMetallicRoughness":{
				"baseColorFactor":[
					0.8000074625015259,
					0.4047737419605255,
					0,
					1
				],
				"metallicFactor":0,
				"roughnessFactor":0.5
			}
		},
		{
			"doubleSided":true,
			"name":"Material.007",
			"pbrMetallicRoughness":{
				"baseColorFactor":[
					0.013336746022105217,
					0.5783879160881042,
					0,
					1
				],
				"metallicFactor":0,
				"roughnessFactor":0.5
			}
		},
		{
			"doubleSided":true,
			"name":"Material.008",
			"pbrMetallicRoughness":{
				"baseColorFactor":[
					0.0007479980704374611,
					0.14636263251304626,
					0.8000074625015259,
					1
				],
				"metallicFactor":0,
				"roughnessFactor":0.5
			}
		}
	],
	"meshes":[
		{
			"name":"Cube",
			"primitives":[
				{
					"attributes":{
						"POSITION":0,
						"NORMAL":1,
						"TEXCOORD_0":2
					},
					"indices":3,
					"material":0
				},
				{
					"attributes":{
						"POSITION":4,
						"NORMAL":5,
						"TEXCOORD_0":6
					},
					"indices":7,
					"material":1
				}
			]
		},
		{
			"name":"Cube.001",
			"primitives":[
				{
					"attributes":{
						"POSITION":8,
						"NORMAL":9,
						"TEXCOORD_0":10
					},
					"indices":11,
					"material":1
				},
				{
					"attributes":{
						"POSITION":12,
						"NORMAL":13,
						"TEXCOORD_0":14
					},
					"indices":15,
					"material":2
				}
			]
		},
		{
			"name":"Cube.002",
			"primitives":[
				{
					"attributes":{
						"POSITION":16,
						"NORMAL":17,
						"TEXCOORD_0":18
					},
					"indices":11,
					"material":1
				},
				{
					"attributes":{
						"POSITION":19,
						"NORMAL":20,
						"TEXCOORD_0":21
					},
					"indices":15,
					"material":3
				}
			]
		},
		{
			"name":"Cube.003",
			"primitives":[
				{
					"attributes":{
						"POSITION":22,
						"NORMAL":23,
						"TEXCOORD_0":24
					},
					"indices":11,
					"material":1
				},
				{
					"attributes":{
						"POSITION":25,
						"NORMAL":26,
						"TEXCOORD_0":27
					},
					"indices":15,
					"material":3
				}
			]
		},
		{
			"name":"Cube.004",
			"primitives":[
				{
					"attributes":{
						"POSITION":28,
						"NORMAL":29,
						"TEXCOORD_0":30
					},
					"indices":31,
					"material":4
				}
			]
		},
		{
			"name":"Cube.005",
			"primitives":[
				{
					"attributes":{
						"POSITION":32,
						"NORMAL":33,
						"TEXCOORD_0":34
					},
					"indices":31,
					"material":5
				}
			]
		},
		{
			"name":"Cube.006",
			"primitives":[
				{
					"attributes":{
						"POSITION":35,
						"NORMAL":36,
						"TEXCOORD_0":37
					},
					"indices":31,
					"material":6
				}
			]
		},
		{
			"name":"Cube.007",
			"primitives":[
				{
					"attributes":{
						"POSITION":38,
						"NORMAL":39,
						"TEXCOORD_0":40
					},
					"indices":31,
					"material":7
				}
			]
		},
		{
			"name":"Cube.008",
			"primitives":[
				{
					"attributes":{
						"POSITION":41,
						"NORMAL":42,
						"TEXCOORD_0":43
					},
					"indices":31,
					"material":8
				}
			]
		},
		{
			"name":"Cylinder",
			"primitives":[
				{
					"attributes":{
						"POSITION":44,
						"NORMAL":45,
						"TEXCOORD_0":46
					},
					"indices":47,
					"material":1
				},
				{
					"attributes":{
						"POSITION":48,
						"NORMAL":49,
						"TEXCOORD_0":50
					},
					"indices":51,
					"material":3
				}
			]
		},
		{
			"name":"Cylinder.001",
			"primitives":[
				{
					"attributes":{
						"POSITION":52,
						"NORMAL":53,
						"TEXCOORD_0":54
					},
					"indices":55,
					"material":4
				}
			]
		}
	],
	"accessors":[
		{
			"bufferView":0,
			"componentType":5126,
			"count":168,
			"max":[
				0.08660270273685455,
				0.022787559777498245,
				0.09514326602220535
			],
			"min":[
				-0.07221472263336182,
				-0.050030410289764404,
				-0.0594659261405468
			],
			"type":"VEC3"
		},
		{
			"bufferView":1,
			"componentType":5126,
			"count":168,
			"type":"VEC3"
		},
		{
			"bufferView":2,
			"componentType":5126,
			"count":168,
			"type":"VEC2"
		},
		{
			"bufferView":3,
			"componentType":5123,
			"count":756,
			"type":"SCALAR"
		},
		{
			"bufferView":4,
			"componentType":5126,
			"count":8,
			"max":[
				-0.025471679866313934,
				-0.03554046154022217,
				0.04382753744721413
			],
			"min":[
				-0.06903667002916336,
				-0.04007942974567413,
				-0.053061362355947495
			],
			"type":"VEC3"
		},
		{
			"bufferView":5,
			"componentType":5126,
			"count":8,
			"type":"VEC3"
		},
		{
			"bufferView":6,
			"componentType":5126,
			"count":8,
			"type":"VEC2"
		},
		{
			"bufferView":7,
			"componentType":5123,
			"count":30,
			"type":"SCALAR"
		},
		{
			"bufferView":8,
			"componentType":5126,
			"count":182,
			"max":[
				0.011685867793858051,
				0.015188883990049362,
				-0.009376006200909615
			],
			"min":[
				-0.024909237399697304,
				-0.015168579295277596,
				-0.045628227293491364
			],
			"type":"VEC3"
		},
		{
			"bufferView":9,
			"componentType":5126,
			"count":182,
			"type":"VEC3"
		},
		{
			"bufferView":10,
			"componentType":5126,
			"count":182,
			"type":"VEC2"
		},
		{
			"bufferView":11,
			"componentType":5123,
			"count":918,
			"type":"SCALAR"
		},
		{
			"bufferView":12,
			"componentType":5126,
			"count":4,
			"max":[
				-0.014645236544311047,
				0.010083893314003944,
				-0.022546783089637756
			],
			"min":[
				-0.023010894656181335,
				-0.0045760092325508595,
				-0.042231157422065735
			],
			"type":"VEC3"
		},
		{
			"bufferView":13,
			"componentType":5126,
			"count":4,
			"type":"VEC3"
		},
		{
			"bufferView":14,
			"componentType":5126,
			"count":4,
			"type":"VEC2"
		},
		{
			"bufferView":15,
			"componentType":5123,
			"count":6,
			"type":"SCALAR"
		},
		{
			"bufferView":16,
			"componentType":5126,
			"count":182,
			"max":[
				-0.016484219580888748,
				0.015188883990049362,
				0.06104487553238869
			],
			"min":[
				-0.05307932570576668,
				-0.015168579295277596,
				0.02479265257716179
			],
			"type":"VEC3"
		},
		{
			"bufferView":17,
			"componentType":5126,
			"count":182,
			"type":"VEC3"
		},
		{
			"bufferView":18,
			"componentType":5126,
			"count":182,
			"type":"VEC2"
		},
		{
			"bufferView":19,
			"componentType":5126,
			"count":4,
			"max":[
				-0.042815327644348145,
				0.010083893314003944,
				0.047874096781015396
			],
			"min":[
				-0.05118098109960556,
				-0.010855469852685928,
				0.028189724311232567
			],
			"type":"VEC3"
		},
		{
			"bufferView":20,
			"componentType":5126,
			"count":4,
			"type":"VEC3"
		},
		{
			"bufferView":21,
			"componentType":5126,
			"count":4,
			"type":"VEC2"
		},
		{
			"bufferView":22,
			"componentType":5126,
			"count":182,
			"max":[
				0.05372767895460129,
				0.020032361149787903,
				0.08918819576501846
			],
			"min":[
				0.028531871736049652,
				-0.0008688201778568327,
				0.06422846019268036
			],
			"type":"VEC3"
		},
		{
			"bufferView":23,
			"componentType":5126,
			"count":182,
			"type":"VEC3"
		},
		{
			"bufferView":24,
			"componentType":5126,
			"count":182,
			"type":"VEC2"
		},
		{
			"bufferView":25,
			"componentType":5126,
			"count":4,
			"max":[
				0.052420664578676224,
				0.01651756465435028,
				0.08684930205345154
			],
			"min":[
				0.0466608963906765,
				0.002100765472277999,
				0.07329656928777695
			],
			"type":"VEC3"
		},
		{
			"bufferView":26,
			"componentType":5126,
			"count":4,
			"type":"VEC3"
		},
		{
			"bufferView":27,
			"componentType":5126,
			"count":4,
			"type":"VEC2"
		},
		{
			"bufferView":28,
			"componentType":5126,
			"count":24,
			"max":[
				-0.015129419974982738,
				0.023063700646162033,
				0.004590154159814119
			],
			"min":[
				-0.031287726014852524,
				0.004843367729336023,
				-0.00378039525821805
			],
			"type":"VEC3"
		},
		{
			"bufferView":29,
			"componentType":5126,
			"count":24,
			"type":"VEC3"
		},
		{
			"bufferView":30,
			"componentType":5126,
			"count":24,
			"type":"VEC2"
		},
		{
			"bufferView":31,
			"componentType":5123,
			"count":36,
			"type":"SCALAR"
		},
		{
			"bufferView":32,
			"componentType":5126,
			"count":24,
			"max":[
				-0.01603287272155285,
				0.023063700646162033,
				0.006848650984466076
			],
			"min":[
				-0.03219117969274521,
				0.004843367729336023,
				-0.0015218985499814153
			],
			"type":"VEC3"
		},
		{
			"bufferView":33,
			"componentType":5126,
			"count":24,
			"type":"VEC3"
		},
		{
			"bufferView":34,
			"componentType":5126,
			"count":24,
			"type":"VEC2"
		},
		{
			"bufferView":35,
			"componentType":5126,
			"count":24,
			"max":[
				-0.016936343163251877,
				0.023063700646162033,
				0.009107185527682304
			],
			"min":[
				-0.033094651997089386,
				0.004843367729336023,
				0.000736636109650135
			],
			"type":"VEC3"
		},
		{
			"bufferView":36,
			"componentType":5126,
			"count":24,
			"type":"VEC3"
		},
		{
			"bufferView":37,
			"componentType":5126,
			"count":24,
			"type":"VEC2"
		},
		{
			"bufferView":38,
			"componentType":5126,
			"count":24,
			"max":[
				-0.017847076058387756,
				0.023063700646162033,
				0.01138387806713581
			],
			"min":[
				-0.03400538116693497,
				0.004843367729336023,
				0.003013328183442354
			],
			"type":"VEC3"
		},
		{
			"bufferView":39,
			"componentType":5126,
			"count":24,
			"type":"VEC3"
		},
		{
			"bufferView":40,
			"componentType":5126,
			"count":24,
			"type":"VEC2"
		},
		{
			"bufferView":41,
			"componentType":5126,
			"count":24,
			"max":[
				-0.018674351274967194,
				0.023063700646162033,
				0.013451936654746532
			],
			"min":[
				-0.034832656383514404,
				0.004843367729336023,
				0.005081386771053076
			],
			"type":"VEC3"
		},
		{
			"bufferView":42,
			"componentType":5126,
			"count":24,
			"type":"VEC3"
		},
		{
			"bufferView":43,
			"componentType":5126,
			"count":24,
			"type":"VEC2"
		},
		{
			"bufferView":44,
			"componentType":5126,
			"count":194,
			"max":[
				0.0018745444249361753,
				0.011301349848508835,
				0.029517436400055885
			],
			"min":[
				-0.044149626046419144,
				-0.02410515584051609,
				-0.0165067370980978
			],
			"type":"VEC3"
		},
		{
			"bufferView":45,
			"componentType":5126,
			"count":194,
			"type":"VEC3"
		},
		{
			"bufferView":46,
			"componentType":5126,
			"count":194,
			"type":"VEC2"
		},
		{
			"bufferView":47,
			"componentType":5123,
			"count":666,
			"type":"SCALAR"
		},
		{
			"bufferView":48,
			"componentType":5126,
			"count":32,
			"max":[
				-0.02973180077970028,
				0.009044651873409748,
				0.015114136971533298
			],
			"min":[
				-0.04120582342147827,
				-0.021848460659384727,
				-0.01356915757060051
			],
			"type":"VEC3"
		},
		{
			"bufferView":49,
			"componentType":5126,
			"count":32,
			"type":"VEC3"
		},
		{
			"bufferView":50,
			"componentType":5126,
			"count":32,
			"type":"VEC2"
		},
		{
			"bufferView":51,
			"componentType":5123,
			"count":90,
			"type":"SCALAR"
		},
		{
			"bufferView":52,
			"componentType":5126,
			"count":260,
			"max":[
				0.014834265224635601,
				0.025516072288155556,
				-0.019401879981160164
			],
			"min":[
				-0.001770792412571609,
				0.020117247477173805,
				-0.03600693494081497
			],
			"type":"VEC3"
		},
		{
			"bufferView":53,
			"componentType":5126,
			"count":260,
			"type":"VEC3"
		},
		{
			"bufferView":54,
			"componentType":5126,
			"count":260,
			"type":"VEC2"
		},
		{
			"bufferView":55,
			"componentType":5123,
			"count":1140,
			"type":"SCALAR"
		}
	],
	"bufferViews":[
		{
			"buffer":0,
			"byteLength":2016,
			"byteOffset":0,
			"target":34962
		},
		{
			"buffer":0,
			"byteLength":2016,
			"byteOffset":2016,
			"target":34962
		},
		{
			"buffer":0,
			"byteLength":1344,
			"byteOffset":4032,
			"target":34962
		},
		{
			"buffer":0,
			"byteLength":1512,
			"byteOffset":5376,
			"target":34963
		},
		{
			"buffer":0,
			"byteLength":96,
			"byteOffset":6888,
			"target":34962
		},
		{
			"buffer":0,
			"byteLength":96,
			"byteOffset":6984,
			"target":34962
		},
		{
			"buffer":0,
			"byteLength":64,
			"byteOffset":7080,
			"target":34962
		},
		{
			"buffer":0,
			"byteLength":60,
			"byteOffset":7144,
			"target":34963
		},
		{
			"buffer":0,
			"byteLength":2184,
			"byteOffset":7204,
			"target":34962
		},
		{
			"buffer":0,
			"byteLength":2184,
			"byteOffset":9388,
			"target":34962
		},
		{
			"buffer":0,
			"byteLength":1456,
			"byteOffset":11572,
			"target":34962
		},
		{
			"buffer":0,
			"byteLength":1836,
			"byteOffset":13028,
			"target":34963
		},
		{
			"buffer":0,
			"byteLength":48,
			"byteOffset":14864,
			"target":34962
		},
		{
			"buffer":0,
			"byteLength":48,
			"byteOffset":14912,
			"target":34962
		},
		{
			"buffer":0,
			"byteLength":32,
			"byteOffset":14960,
			"target":34962
		},
		{
			"buffer":0,
			"byteLength":12,
			"byteOffset":14992,
			"target":34963
		},
		{
			"buffer":0,
			"byteLength":2184,
			"byteOffset":15004,
			"target":34962
		},
		{
			"buffer":0,
			"byteLength":2184,
			"byteOffset":17188,
			"target":34962
		},
		{
			"buffer":0,
			"byteLength":1456,
			"byteOffset":19372,
			"target":34962
		},
		{
			"buffer":0,
			"byteLength":48,
			"byteOffset":20828,
			"target":34962
		},
		{
			"buffer":0,
			"byteLength":48,
			"byteOffset":20876,
			"target":34962
		},
		{
			"buffer":0,
			"byteLength":32,
			"byteOffset":20924,
			"target":34962
		},
		{
			"buffer":0,
			"byteLength":2184,
			"byteOffset":20956,
			"target":34962
		},
		{
			"buffer":0,
			"byteLength":2184,
			"byteOffset":23140,
			"target":34962
		},
		{
			"buffer":0,
			"byteLength":1456,
			"byteOffset":25324,
			"target":34962
		},
		{
			"buffer":0,
			"byteLength":48,
			"byteOffset":26780,
			"target":34962
		},
		{
			"buffer":0,
			"byteLength":48,
			"byteOffset":26828,
			"target":34962
		},
		{
			"buffer":0,
			"byteLength":32,
			"byteOffset":26876,
			"target":34962
		},
		{
			"buffer":0,
			"byteLength":288,
			"byteOffset":26908,
			"target":34962
		},
		{
			"buffer":0,
			"byteLength":288,
			"byteOffset":27196,
			"target":34962
		},
		{
			"buffer":0,
			"byteLength":192,
			"byteOffset":27484,
			"target":34962
		},
		{
			"buffer":0,
			"byteLength":72,
			"byteOffset":27676,
			"target":34963
		},
		{
			"buffer":0,
			"byteLength":288,
			"byteOffset":27748,
			"target":34962
		},
		{
			"buffer":0,
			"byteLength":288,
			"byteOffset":28036,
			"target":34962
		},
		{
			"buffer":0,
			"byteLength":192,
			"byteOffset":28324,
			"target":34962
		},
		{
			"buffer":0,
			"byteLength":288,
			"byteOffset":28516,
			"target":34962
		},
		{
			"buffer":0,
			"byteLength":288,
			"byteOffset":28804,
			"target":34962
		},
		{
			"buffer":0,
			"byteLength":192,
			"byteOffset":29092,
			"target":34962
		},
		{
			"buffer":0,
			"byteLength":288,
			"byteOffset":29284,
			"target":34962
		},
		{
			"buffer":0,
			"byteLength":288,
			"byteOffset":29572,
			"target":34962
		},
		{
			"buffer":0,
			"byteLength":192,
			"byteOffset":29860,
			"target":34962
		},
		{
			"buffer":0,
			"byteLength":288,
			"byteOffset":30052,
			"target":34962
		},
		{
			"buffer":0,
			"byteLength":288,
			"byteOffset":30340,
			"target":34962
		},
		{
			"buffer":0,
			"byteLength":192,
			"byteOffset":30628,
			"target":34962
		},
		{
			"buffer":0,
			"byteLength":2328,
			"byteOffset":30820,
			"target":34962
		},
		{
			"buffer":0,
			"byteLength":2328,
			"byteOffset":33148,
			"target":34962
		},
		{
			"buffer":0,
			"byteLength":1552,
			"byteOffset":35476,
			"target":34962
		},
		{
			"buffer":0,
			"byteLength":1332,
			"byteOffset":37028,
			"target":34963
		},
		{
			"buffer":0,
			"byteLength":384,
			"byteOffset":38360,
			"target":34962
		},
		{
			"buffer":0,
			"byteLength":384,
			"byteOffset":38744,
			"target":34962
		},
		{
			"buffer":0,
			"byteLength":256,
			"byteOffset":39128,
			"target":34962
		},
		{
			"buffer":0,
			"byteLength":180,
			"byteOffset":39384,
			"target":34963
		},
		{
			"buffer":0,
			"byteLength":3120,
			"byteOffset":39564,
			"target":34962
		},
		{
			"buffer":0,
			"byteLength":3120,
			"byteOffset":42684,
			"target":34962
		},
		{
			"buffer":0,
			"byteLength":2080,
			"byteOffset":45804,
			"target":34962
		},
		{
			"buffer":0,
			"byteLength":2280,
			"byteOffset":47884,
			"target":34963
		}
	],
	"buffers":[
		{
			"byteLength":50164,
			"uri":"camera.bin"
		}
	]
}
